<?xml version="1.0" encoding="utf-8"?>
<!-- Generator: Adobe Illustrator 16.0.0, SVG Export Plug-In . SVG Version: 6.00 Build 0)  -->
<!DOCTYPE svg PUBLIC "-//W3C//DTD SVG 1.1//EN" "http://www.w3.org/Graphics/SVG/1.1/DTD/svg11.dtd">
<svg version="1.1" id="Layer_1" xmlns="http://www.w3.org/2000/svg" xmlns:xlink="http://www.w3.org/1999/xlink" x="0px" y="0px"
	 width="60px" height="85px" viewBox="0 0 60 85" enable-background="new 0 0 60 85" xml:space="preserve">
<g>
	<path opacity="0.07" fill-rule="evenodd" clip-rule="evenodd" fill="#939393" d="M50.001,60.733c0,11.049-8.95,20-20,20
		s-20-8.951-20-20c0-11.051,8.95-20,20-20S50.001,49.683,50.001,60.733z"/>
	
		<path opacity="0.5" fill-rule="evenodd" clip-rule="evenodd" fill="#FEFEFE" stroke="#FFFFFF" stroke-linecap="round" stroke-linejoin="round" stroke-miterlimit="10" d="
		M50.001,58.821c0,11.05-8.95,20-20,20s-20-8.95-20-20s8.95-20,20-20S50.001,47.771,50.001,58.821z"/>
	
		<path opacity="0.35" fill-rule="evenodd" clip-rule="evenodd" fill="none" stroke="#FFFFFF" stroke-linecap="round" stroke-linejoin="round" stroke-miterlimit="10" d="
		M50.001,58.821c0,11.05-8.95,20-20,20s-20-8.95-20-20s8.95-20,20-20S50.001,47.771,50.001,58.821z"/>
</g>
<g>
	<linearGradient id="SVGID_1_" gradientUnits="userSpaceOnUse" x1="26.3066" y1="50.0347" x2="58.0475" y2="31.7091">
		<stop  offset="0" style="stop-color:#000000;stop-opacity:0.7"/>
		<stop  offset="1" style="stop-color:#000000;stop-opacity:0.3"/>
	</linearGradient>
	<path opacity="0.2" fill-rule="evenodd" clip-rule="evenodd" fill="url(#SVGID_1_)" d="M50.474,29.115
		c-7.61-2.34-16.86,0.62-20.65,6.6c-1.17,1.84-2.31,5-1.64,8.37c1.46,7.29,1.86,17.22,1.86,17.22s13.279-7.12,19.16-10.399
		c3.979-2.221,6.949-4.811,8.149-6.711C61.153,38.215,58.073,31.455,50.474,29.115z M41.493,43.255c-2.3-0.71-3.239-2.77-2.079-4.58
		c1.149-1.82,3.96-2.72,6.27-2.01c2.3,0.71,3.24,2.76,2.08,4.58C46.613,43.065,43.804,43.965,41.493,43.255z"/>
	<g>
		<path fill-rule="evenodd" clip-rule="evenodd" fill="#406609" d="M30.009,30.719c-3.069,0-5.365-3.91-5.365-7.14
			c0-3.24,2.296-4.59,5.365-4.59c3.07,0,5.57,2.63,5.57,5.87C35.579,28.089,33.079,30.719,30.009,30.719z M30.009,6.498
			c-10.12,0-18.34,8.271-18.34,18.463c0,3.117,0.96,8.127,4.09,12.631c6.79,9.733,14.25,23.713,14.25,23.713s9.771-15.978,14-23.225
			c2.87-4.905,4.351-9.896,4.351-13.119C48.359,14.768,40.139,6.498,30.009,6.498z"/>
		<linearGradient id="SVGID_2_" gradientUnits="userSpaceOnUse" x1="30.0137" y1="59.5967" x2="30.0137" y2="4.7896">
			<stop  offset="0.2265" style="stop-color:#5D8C14"/>
			<stop  offset="1" style="stop-color:#89AF3E"/>
		</linearGradient>
		<path fill-rule="evenodd" clip-rule="evenodd" fill="url(#SVGID_2_)" d="M30.009,28.583c-3.069,0-5.793-2.879-5.793-6.109
			c0-3.574,2.724-5.891,5.793-5.891c3.07,0,5.823,2.44,5.823,5.681C35.832,25.493,33.079,28.583,30.009,28.583z M30.009,4.79
			c-10.12,0-18.34,8.271-18.34,18.464c0,3.117,0.96,8.127,4.09,12.631c6.79,9.734,14.25,23.712,14.25,23.712s9.771-15.978,14-23.225
			c2.87-4.905,4.351-9.896,4.351-13.118C48.359,13.061,40.139,4.79,30.009,4.79z"/>
		<circle fill-rule="evenodd" clip-rule="evenodd" fill="#89AF3E" cx="30.049" cy="23.083" r="6.5"/>
		<circle fill-rule="evenodd" clip-rule="evenodd" fill="#FFFFFF" cx="30.049" cy="23.083" r="5.5"/>
	</g>
</g>
<linearGradient id="SVGID_3_" gradientUnits="userSpaceOnUse" x1="-8317.2715" y1="-7613.6143" x2="-8317.2715" y2="-7607.6313" gradientTransform="matrix(-1 0 0 -1 -8287.2227 -7591.3457)">
	<stop  offset="0" style="stop-color:#FFFFFF"/>
	<stop  offset="0.0194" style="stop-color:#FEFEFE"/>
	<stop  offset="0.6433" style="stop-color:#E1E1E1"/>
	<stop  offset="1" style="stop-color:#D6D6D6"/>
</linearGradient>
<path opacity="0.5" fill-rule="evenodd" clip-rule="evenodd" fill="url(#SVGID_3_)" d="M24.533,23.079
	c0-3.041,2.472-5.512,5.519-5.512c3.041,0,5.513,2.472,5.513,5.512c0,3.048-2.472,5.519-5.513,5.519
	C27.005,28.598,24.533,26.127,24.533,23.079z"/>
<path fill-rule="evenodd" clip-rule="evenodd" fill="#FFFFFF" d="M25.147,23.08c0-2.702,2.196-4.898,4.904-4.898
	c2.702,0,4.898,2.196,4.898,4.898c0,2.709-2.196,4.904-4.898,4.904C27.344,27.984,25.147,25.789,25.147,23.08z"/>
</svg>
