<?xml version="1.0" encoding="utf-8"?>
<!-- Generator: Adobe Illustrator 16.0.0, SVG Export Plug-In . SVG Version: 6.00 Build 0)  -->
<!DOCTYPE svg PUBLIC "-//W3C//DTD SVG 1.1//EN" "http://www.w3.org/Graphics/SVG/1.1/DTD/svg11.dtd">
<svg version="1.1" id="Layer_1" xmlns="http://www.w3.org/2000/svg" xmlns:xlink="http://www.w3.org/1999/xlink" x="0px" y="0px"
	 width="50px" height="50px" viewBox="0 0 50 50" enable-background="new 0 0 50 50" xml:space="preserve">
<g>
	<linearGradient id="SVGID_1_" gradientUnits="userSpaceOnUse" x1="25" y1="15.3447" x2="25" y2="34.6548">
		<stop  offset="0" style="stop-color:#FFFFFF"/>
		<stop  offset="0.1526" style="stop-color:#DBDBDB;stop-opacity:0.9085"/>
		<stop  offset="0.4499" style="stop-color:#9A9A9A;stop-opacity:0.7301"/>
		<stop  offset="0.7004" style="stop-color:#6A6A6A;stop-opacity:0.5798"/>
		<stop  offset="0.8913" style="stop-color:#4D4D4D;stop-opacity:0.4652"/>
		<stop  offset="1" style="stop-color:#424242;stop-opacity:0.4"/>
	</linearGradient>
	<path fill-rule="evenodd" clip-rule="evenodd" fill="url(#SVGID_1_)" d="M34.654,25.004c0,5.324-4.325,9.65-9.66,9.65
		c-5.324,0-9.648-4.326-9.648-9.65c0-5.333,4.324-9.66,9.648-9.66C30.329,15.345,34.654,19.671,34.654,25.004z"/>
	
		<radialGradient id="SVGID_2_" cx="24.5" cy="21.7212" r="14.4739" fx="22.6409" fy="21.7148" gradientTransform="matrix(1 0 0 0.8 0 4.3442)" gradientUnits="userSpaceOnUse">
		<stop  offset="0.0037" style="stop-color:#86EFFF"/>
		<stop  offset="0.3791" style="stop-color:#06B4F4"/>
		<stop  offset="0.5614" style="stop-color:#059DF0"/>
		<stop  offset="0.9593" style="stop-color:#025CF2"/>
	</radialGradient>
	<path fill-rule="evenodd" clip-rule="evenodd" fill="url(#SVGID_2_)" d="M34.377,24.727c0,5.171-4.201,9.371-9.382,9.371
		c-5.171,0-9.372-4.199-9.372-9.371c0-5.181,4.201-9.382,9.372-9.382C30.176,15.345,34.377,19.546,34.377,24.727z"/>
	
		<radialGradient id="SVGID_3_" cx="24.1357" cy="21.1455" r="20.3312" fx="21.5242" fy="21.1365" gradientTransform="matrix(1 0 0 0.8 0 4.2291)" gradientUnits="userSpaceOnUse">
		<stop  offset="0.0952" style="stop-color:#86EFFF"/>
		<stop  offset="0.3791" style="stop-color:#06B4F4"/>
		<stop  offset="0.5614" style="stop-color:#059DF0"/>
		<stop  offset="0.9593" style="stop-color:#025CF2"/>
	</radialGradient>
	<path fill-rule="evenodd" clip-rule="evenodd" fill="url(#SVGID_3_)" d="M32.942,24.752c0,4.539-3.687,8.226-8.233,8.226
		c-4.538,0-8.225-3.688-8.225-8.226c0-4.546,3.687-8.232,8.225-8.232C29.256,16.521,32.942,20.206,32.942,24.752z"/>
	
		<linearGradient id="SVGID_4_" gradientUnits="userSpaceOnUse" x1="-8321.9365" y1="-7684.9546" x2="-8321.9365" y2="-7676.6255" gradientTransform="matrix(-1 0 0 -1 -8297.2227 -7661.3457)">
		<stop  offset="0" style="stop-color:#FFFFFF"/>
		<stop  offset="0.0194" style="stop-color:#FEFEFE"/>
		<stop  offset="0.6433" style="stop-color:#E1E1E1"/>
		<stop  offset="1" style="stop-color:#D6D6D6"/>
	</linearGradient>
	<path opacity="0.5" fill-rule="evenodd" clip-rule="evenodd" fill="url(#SVGID_4_)" d="M17.034,24.737
		c0-4.234,3.44-7.673,7.684-7.673c4.233,0,7.675,3.439,7.675,7.673c0,4.244-3.441,7.683-7.675,7.683
		C20.475,32.42,17.034,28.98,17.034,24.737z"/>
</g>
</svg>
