<?xml version="1.0" encoding="utf-8"?>
<!-- Generator: Adobe Illustrator 14.0.0, SVG Export Plug-In . SVG Version: 6.00 Build 43363)  -->
<!DOCTYPE svg PUBLIC "-//W3C//DTD SVG 1.0//EN" "http://www.w3.org/TR/2001/REC-SVG-20010904/DTD/svg10.dtd">
<svg version="1.0" id="Layer_1" xmlns="http://www.w3.org/2000/svg" xmlns:xlink="http://www.w3.org/1999/xlink" x="0px" y="0px"
	 width="93.6px" height="71.812px" viewBox="0 0 93.6 71.812" enable-background="new 0 0 93.6 71.812" xml:space="preserve">
<g>
	<g>
		<g>
			<path d="M11.071,54.28v3.681c-1.141,0.571-2.893,0.906-4.37,0.906c-4.271,0-6.437-3.21-6.437-6.615
				c0-3.503,2.284-7.126,7.027-7.126c1.476,0,2.815,0.376,3.68,0.847v2.736c-0.55-1.574-2.006-2.54-4.054-2.54
				c-3.149,0-4.96,2.737-4.96,5.709c0,2.934,1.772,5.865,5.216,5.865c0.709,0,1.732-0.195,2.323-0.432V54.3
				c0-1.633-0.965-1.693-0.965-1.693h3.485C12.017,52.606,11.071,52.646,11.071,54.28z"/>
			<path d="M26.291,58.553c0,0,0.629-0.04,0.629-0.81c0-0.274-0.138-0.629-0.335-1.16l-0.807-2.086H20.72l-0.789,2.007
				c-0.176,0.474-0.294,0.827-0.294,1.103c0,0.906,0.787,0.946,0.787,0.946h-3.268c0,0,0.789-0.021,1.713-2.284l4.666-11.379
				l4.625,11.397c0.886,2.205,1.792,2.266,1.792,2.266H26.291z M23.239,48.118l-2.146,5.393h4.291L23.239,48.118z"/>
			<path d="M40.531,58.553h-5.493c0,0,0.926-0.021,0.926-1.891v-9.371c0-1.81-0.964-1.85-0.964-1.85h4.98
				c2.5,0,3.603,1.556,3.603,3.13c0,1.477-1.004,2.854-2.441,3.11c1.928,0.217,3.11,1.791,3.11,3.464
				C44.251,56.858,43.011,58.553,40.531,58.553z M39.468,46.406h-1.909v4.881h2.046c1.339,0,2.303-0.983,2.303-2.599
				C41.909,47.271,40.787,46.406,39.468,46.406z M39.743,52.252h-2.184v5.315h2.382c2.106,0,2.619-1.299,2.619-2.501
				C42.56,53.394,41.476,52.252,39.743,52.252z"/>
			<path d="M60.293,58.553h-8.286c0,0,0.904-0.021,0.904-1.97v-9.312c0-1.79-0.924-1.83-0.924-1.83h3.444c0,0-0.945,0.02-0.945,1.83
				v10.296h3.207c1.715,0,2.383-0.571,3.072-2.343L60.293,58.553z"/>
			<path d="M75.267,58.553h-8.227c0,0,0.965-0.021,0.965-1.871v-9.391c0-1.81-1.025-1.85-1.025-1.85h7.894v2.717
				c-0.038-0.218-0.236-1.752-2.066-1.752h-3.208v4.961h2.677c1.396,0,1.477-0.926,1.477-0.926v2.814c0,0-0.061-0.926-1.457-0.926
				h-2.696v5.237h3.307c1.556,0,2.224-0.473,2.814-2.027L75.267,58.553z"/>
			<path d="M89.146,57.449c-0.709,0.886-1.91,1.397-3.604,1.397c-1.299,0-2.498-0.413-3.386-1.023V54.83
				c0.689,2.188,1.989,3.014,3.622,3.014c1.319,0,2.619-0.708,2.619-2.206c0-3.444-6.082-2.992-6.082-7.027
				c0-0.847,0.313-1.693,0.924-2.322c0.709-0.729,1.771-1.141,3.092-1.141c1.102,0,2.224,0.393,2.834,0.885v2.598
				c-0.531-1.792-1.713-2.5-3.07-2.5c-1.497,0-2.402,1.043-2.402,2.146c0,3.11,6.182,2.698,6.182,7.029
				C89.875,56.071,89.638,56.839,89.146,57.449z"/>
		</g>
		<g>
			<polygon points="37.027,8.409 41.03,12.411 45.049,16.429 45.049,16.456 45.062,16.442 45.076,16.456 45.076,16.429 
				53.123,8.381 53.148,8.381 53.136,8.37 53.138,8.368 53.134,8.368 45.062,0.294 45.062,0.32 37.015,8.368 36.987,8.368 37,8.381 
				37,8.381 37,8.383 36.975,8.409 			"/>
			<polygon points="54.382,25.738 62.428,17.689 62.456,17.689 62.444,17.676 62.444,17.674 62.44,17.674 54.369,9.603 
				54.369,9.631 46.323,17.677 46.294,17.677 46.309,17.689 46.283,17.717 46.334,17.717 54.357,25.738 54.357,25.763 
				54.369,25.751 54.382,25.765 			"/>
			<polygon points="53.093,27.053 45.004,18.964 45.004,18.993 36.959,27.038 36.931,27.038 36.944,27.053 36.917,27.08 
				36.973,27.08 44.991,35.098 44.991,35.127 45.004,35.111 45.02,35.127 45.02,35.1 53.065,27.053 			"/>
			<polygon points="34.451,27.053 26.363,18.964 26.363,18.993 18.317,27.038 18.289,27.038 18.302,27.053 18.275,27.08 
				18.331,27.08 26.348,35.098 26.348,35.127 26.363,35.111 26.377,35.127 26.377,35.1 34.423,27.053 			"/>
			<polygon points="71.799,27.053 63.71,18.964 63.71,18.993 55.667,27.038 55.637,27.038 55.651,27.053 55.624,27.08 55.679,27.08 
				63.695,35.098 63.695,35.127 63.71,35.111 63.726,35.127 63.726,35.1 71.771,27.053 			"/>
			<polygon points="35.712,25.791 43.757,17.746 43.786,17.746 43.772,17.731 43.772,17.73 43.772,17.73 35.698,9.657 35.698,9.686 
				27.652,17.73 27.623,17.73 27.639,17.746 27.609,17.773 27.666,17.773 35.683,25.791 35.683,25.819 35.698,25.804 35.712,25.819 
							"/>
		</g>
		<g>
			<path d="M6.273,70.786H4.856l-1.438-2.401c-0.239-0.398-0.535-0.597-0.883-0.597H2.277v2.054c0,0.583,0.165,0.898,0.494,0.944
				H0.973c0.326-0.046,0.488-0.361,0.488-0.943v-4.915c0-0.588-0.169-0.912-0.508-0.974h2.413c0.664,0,1.201,0.178,1.611,0.533
				c0.411,0.356,0.616,0.806,0.616,1.347c0,0.473-0.144,0.876-0.43,1.212c-0.343,0.397-0.821,0.62-1.437,0.669
				C3.9,67.79,4.074,67.97,4.247,68.259l1.197,1.946C5.63,70.513,5.907,70.705,6.273,70.786z M4.737,65.877
				c0-0.383-0.127-0.712-0.385-0.984c-0.285-0.295-0.668-0.442-1.148-0.442H2.277v2.855h0.926c0.528,0,0.924-0.145,1.189-0.432
				C4.623,66.628,4.737,66.296,4.737,65.877z"/>
			<path d="M14.429,69.216l-0.236,1.57H9.899c0.337-0.054,0.504-0.378,0.504-0.974v-4.896c0-0.587-0.179-0.908-0.536-0.963h4.118
				v1.411c-0.123-0.61-0.482-0.915-1.079-0.915h-1.674v2.588h1.396c0.454,0,0.709-0.16,0.771-0.482v1.469
				c-0.055-0.321-0.308-0.482-0.759-0.482h-1.407v2.731h1.727c0.403,0,0.711-0.076,0.92-0.226
				C14.088,69.897,14.271,69.62,14.429,69.216z"/>
			<path d="M22.08,69.098c0,0.432-0.126,0.805-0.379,1.121c-0.39,0.486-1.016,0.729-1.879,0.729c-0.671,0-1.26-0.178-1.767-0.535
				v-1.566c0.328,1.048,0.957,1.572,1.886,1.572c0.375,0,0.691-0.097,0.943-0.288c0.281-0.205,0.42-0.493,0.42-0.862
				c0-0.493-0.273-0.922-0.82-1.284c-0.513-0.302-1.022-0.599-1.527-0.893c-0.548-0.405-0.821-0.9-0.821-1.489
				c0-0.48,0.161-0.884,0.483-1.212c0.383-0.398,0.921-0.597,1.613-0.597c0.597,0,1.088,0.154,1.48,0.463v1.354
				c-0.26-0.869-0.793-1.303-1.602-1.303c-0.376,0-0.678,0.11-0.908,0.334c-0.229,0.222-0.344,0.483-0.344,0.785
				c0,0.439,0.277,0.829,0.831,1.172c0.52,0.303,1.04,0.604,1.562,0.904C21.803,67.922,22.08,68.452,22.08,69.098z"/>
			<path d="M27.681,70.786h-1.797c0.323-0.054,0.484-0.361,0.484-0.923v-4.976c0-0.562-0.165-0.872-0.494-0.934h1.807
				c-0.332,0.062-0.498,0.372-0.498,0.934v4.976C27.184,70.425,27.349,70.732,27.681,70.786z"/>
			<path d="M37.789,67.309c0,0.999-0.288,1.813-0.863,2.442c-0.623,0.69-1.497,1.035-2.618,1.035h-2.69
				c0.333-0.054,0.502-0.398,0.502-1.035v-4.823c0-0.595-0.174-0.919-0.522-0.974h2.742c1.067,0,1.909,0.31,2.526,0.929
				C37.481,65.501,37.789,66.311,37.789,67.309z M36.878,67.368c0-0.938-0.232-1.659-0.697-2.163
				c-0.465-0.503-1.15-0.755-2.053-0.755h-1.18v5.823h1.447c0.828,0,1.464-0.312,1.91-0.934
				C36.688,68.812,36.878,68.154,36.878,67.368z"/>
			<path d="M46.227,69.216l-0.236,1.57h-4.294c0.337-0.054,0.504-0.378,0.504-0.974v-4.896c0-0.587-0.178-0.908-0.535-0.963h4.119
				v1.411c-0.124-0.61-0.484-0.915-1.08-0.915H43.03v2.588h1.396c0.453,0,0.708-0.16,0.77-0.482v1.469
				c-0.054-0.321-0.308-0.482-0.759-0.482H43.03v2.731h1.726c0.404,0,0.711-0.076,0.92-0.226
				C45.886,69.897,46.069,69.62,46.227,69.216z"/>
			<path d="M56.224,63.954c-0.353,0.068-0.527,0.386-0.527,0.952v6.171l-4.668-5.752v4.518c0,0.568,0.188,0.883,0.563,0.943H49.91
				c0.345-0.061,0.519-0.375,0.519-0.943v-4.832c0-0.492-0.26-0.845-0.776-1.057h1.334l4.122,5.099v-4.146
				c0-0.567-0.18-0.885-0.538-0.953H56.224z"/>
			<path d="M65.416,65.405c-0.108-0.349-0.24-0.589-0.39-0.719c-0.171-0.15-0.445-0.227-0.821-0.227h-1.18v5.372
				c0,0.59,0.163,0.908,0.492,0.954h-1.819c0.331-0.046,0.496-0.364,0.496-0.954V64.46H61c-0.37,0-0.643,0.072-0.821,0.216
				c-0.151,0.131-0.282,0.369-0.391,0.72l0.103-1.441h5.424L65.416,65.405z"/>
			<path d="M70.909,70.786h-1.798c0.323-0.054,0.484-0.361,0.484-0.923v-4.976c0-0.562-0.164-0.872-0.494-0.934h1.808
				c-0.331,0.062-0.498,0.372-0.498,0.934v4.976C70.411,70.425,70.578,70.732,70.909,70.786z"/>
			<path d="M81.192,70.786h-1.909c0.219-0.033,0.329-0.173,0.329-0.418c0-0.103-0.062-0.304-0.185-0.604l-0.414-1.093h-2.646
				l-0.401,1.049c-0.103,0.26-0.155,0.452-0.155,0.575c0,0.286,0.138,0.451,0.411,0.491h-1.705c0.09-0.019,0.179-0.071,0.268-0.152
				c0.219-0.2,0.428-0.545,0.626-1.038l2.435-5.937l2.413,5.947C80.545,70.317,80.857,70.712,81.192,70.786z M78.804,68.158
				L77.69,65.34l-1.111,2.818H78.804z"/>
			<path d="M89.375,69.051l-0.246,1.735h-4.323c0.313-0.054,0.471-0.396,0.471-1.025v-4.854c0-0.574-0.161-0.892-0.482-0.953h1.798
				c-0.334,0.055-0.5,0.372-0.5,0.953v5.366h1.678c0.439,0,0.774-0.089,1.009-0.267C88.991,69.836,89.188,69.517,89.375,69.051z"/>
		</g>
		<path d="M72.821,30.536c0.652,0,1.166-0.523,1.166-1.158c0-0.652-0.514-1.178-1.166-1.178c-0.653,0-1.17,0.526-1.17,1.178
			C71.651,30.013,72.167,30.536,72.821,30.536z M72.821,30.385c-0.547,0-0.98-0.475-0.98-1.006c0-0.55,0.43-1.027,0.98-1.027
			c0.55,0,0.976,0.475,0.976,1.027C73.796,29.91,73.367,30.385,72.821,30.385z M72.823,29.933c-0.146-0.02-0.171-0.017-0.171-0.105
			v-0.405h0.169c0.213,0.321,0.296,0.556,0.404,0.556h0.215v-0.027c-0.063-0.051-0.166-0.17-0.255-0.292l-0.192-0.269
			c0.159-0.052,0.275-0.184,0.275-0.356c0-0.215-0.19-0.312-0.396-0.312h-0.597v0.052c0.169,0.016,0.165,0.013,0.165,0.167v0.885
			c0,0.089-0.027,0.086-0.171,0.105v0.045h0.553V29.933z M72.652,28.788h0.146c0.124,0,0.234,0.063,0.234,0.263
			c0,0.186-0.071,0.308-0.229,0.308h-0.151V28.788z"/>
		<path d="M92.166,58.991c0.655,0,1.168-0.524,1.168-1.158c0-0.652-0.513-1.178-1.168-1.178c-0.648,0-1.166,0.525-1.166,1.178
			C91,58.467,91.517,58.991,92.166,58.991z M92.166,58.84c-0.544,0-0.977-0.476-0.977-1.007c0-0.55,0.431-1.027,0.977-1.027
			c0.552,0,0.98,0.475,0.98,1.027C93.146,58.364,92.714,58.84,92.166,58.84z M92.169,58.388c-0.144-0.02-0.17-0.017-0.17-0.105
			v-0.405h0.166c0.215,0.322,0.299,0.557,0.409,0.557h0.215v-0.027c-0.066-0.051-0.167-0.17-0.258-0.291l-0.191-0.269
			c0.16-0.053,0.276-0.185,0.276-0.356c0-0.217-0.189-0.312-0.396-0.312h-0.597v0.051c0.168,0.018,0.164,0.014,0.164,0.168v0.886
			c0,0.089-0.026,0.086-0.168,0.105v0.046h0.55V58.388z M92,57.242h0.145c0.126,0,0.234,0.064,0.234,0.263
			c0,0.187-0.071,0.309-0.229,0.309H92V57.242z"/>
	</g>
</g>
</svg>
